<svg width="120" height="86" viewBox="0 0 120 86" fill="none" xmlns="http://www.w3.org/2000/svg">
  <!-- Left wing -->
  <path d="M8 8 C18 10, 38 22, 52 52 C42 44, 22 36, 8 8Z" fill="#4DB8D4"/>
  <path d="M8 8 C18 10, 38 22, 52 52 C46 40, 30 24, 8 8Z" fill="#6ECDE0" opacity="0.5"/>
  <!-- Right wing -->
  <path d="M52 52 C62 30, 88 10, 114 4 C102 14, 78 30, 52 52Z" fill="#3AACCC"/>
  <path d="M52 52 C66 34, 90 16, 114 4 C106 10, 84 24, 52 52Z" fill="#2196C4" opacity="0.4"/>
  <!-- Inner shadow -->
  <path d="M52 52 C50 46, 50 40, 54 34 C56 40, 56 46, 52 52Z" fill="#2196C4" opacity="0.3"/>
</svg>
